<svg width="100" height="100" viewBox="0 0 100 100" fill="none" xmlns="http://www.w3.org/2000/svg">
  <!-- Pallet -->
  <rect x="10" y="80" width="80" height="8" rx="2" fill="white"/>
  <rect x="20" y="88" width="10" height="4" rx="1" fill="white" opacity="0.8"/>
  <rect x="45" y="88" width="10" height="4" rx="1" fill="white" opacity="0.8"/>
  <rect x="70" y="88" width="10" height="4" rx="1" fill="white" opacity="0.8"/>
  
  <!-- Box -->
  <path d="M20 25C20 22.2386 22.2386 20 25 20H75C77.7614 20 80 22.2386 80 25V75H20V25Z" fill="white"/>
  
  <!-- Inner Details (using the blue color for contrast on the white box) -->
  <path d="M20 35H80" stroke="#0958d9" stroke-width="2" stroke-linecap="round" opacity="0.3"/>
  
  <!-- Tape -->
  <rect x="44" y="20" width="12" height="25" rx="2" fill="#0958d9" opacity="0.4"/>
  
  <!-- Label/Lines -->
  <rect x="30" y="45" width="15" height="4" rx="2" fill="#0958d9" opacity="0.3"/>
  <rect x="30" y="55" width="25" height="4" rx="2" fill="#0958d9" opacity="0.3"/>
  <rect x="30" y="65" width="10" height="4" rx="2" fill="#0958d9" opacity="0.3"/>
</svg>
